# xmcd CD database file generated by Grip 3.0.1
# 
# Track frame offsets:
#       182
#       17575
#       32770
#       52635
# 
# Disc length: 912 seconds
# 
# Revision: 1
# Processed by: cddbd v1.4PL0 Copyright (c) Steve Scherf et al.
# Submitted via: Grip 3.0.1
# 
DISCID=20038e04
DTITLE=Urban Dance Squad - Clashing Perspectives
DYEAR=1991
DGENRE=Alternative
TTITLE0=Mr. Ezway
TTITLE1=Wino The Medicine Man
TTITLE2=Comeback
TTITLE3=Son Of Tha Culture Clash
EXTD=
EXTT0=
EXTT1=
EXTT2=
EXTT3=
PLAYORDER=
